<?xml version="1.0" encoding="UTF-8" standalone="no"?><!DOCTYPE svg PUBLIC "-//W3C//DTD SVG 1.1//EN" "http://www.w3.org/Graphics/SVG/1.1/DTD/svg11.dtd"><svg width="100%" height="100%" viewBox="0 0 118 59" version="1.1" xmlns="http://www.w3.org/2000/svg" xmlns:xlink="http://www.w3.org/1999/xlink" xml:space="preserve" xmlns:serif="http://www.serif.com/" style="fill-rule:evenodd;clip-rule:evenodd;stroke-linejoin:round;stroke-miterlimit:1.41421;"><rect id="alternate75" x="0" y="0" width="118" height="59" style="fill:none;"/><clipPath id="_clip1"><rect id="alternate751" serif:id="alternate75" x="0" y="0" width="118" height="59"/></clipPath><g clip-path="url(#_clip1)"><g><path d="M1.506,58.362l-0.006,-0.224c0,-31.735 25.765,-57.5 57.5,-57.5c31.735,0 57.5,25.765 57.5,57.5l-0.006,0.224l-15,0l0.012,-0.224c0,-23.46 -19.046,-42.506 -42.506,-42.506c-23.46,0 -42.506,19.046 -42.506,42.506l0.012,0.224l-15,0Z" style="fill:#55cadd;"/><path d="M1.5,58.362l0.255,-5.329l0.022,-0.289l0.377,-2.617l0.465,-3.044l0.698,-2.861l0.673,-2.617l0.96,-2.745l0.947,-2.587l1.16,-2.499l1.262,-2.62l1.375,-2.327l1.529,-2.516l1.824,-2.481l1.583,-2.117l0.189,-0.221l3.588,-3.947l3.948,-3.588l0.22,-0.189l2.117,-1.584l2.481,-1.823l2.517,-1.529l2.326,-1.375l2.621,-1.262l2.498,-1.16l2.587,-0.947l2.746,-0.96l2.617,-0.673l2.861,-0.699l3.044,-0.464l2.616,-0.378l0.29,-0.022l5.328,-0.254l5.328,0.254l0.29,0.022l2.616,0.378l3.044,0.464l2.861,0.699l2.617,0.673l2.746,0.96l2.587,0.947l2.498,1.16l2.621,1.262l2.326,1.375l2.517,1.529l2.481,1.823l2.117,1.584l0.22,0.189l3.948,3.588l-10.561,10.56l0,0.001l0,-0.001l-0.016,-0.014l-3.023,-2.747l-0.097,-0.073l-0.114,-0.103l-1.405,-1.033l-1.678,-1.255l-0.166,-0.1l-0.213,-0.157l-1.645,-0.972l-1.504,-0.914l-0.228,-0.11l-0.269,-0.158l-1.665,-0.773l-1.578,-0.761l-0.283,-0.103l-0.271,-0.126l-1.637,-0.572l-1.74,-0.637l-0.305,-0.079l-0.237,-0.083l-1.692,-0.413l-1.867,-0.48l-0.264,-0.04l-0.187,-0.046l-2.055,-0.296l-1.742,-0.266l-0.155,-0.008l-0.119,-0.017l-4.068,-0.194l-0.033,-0.002l-0.022,0.001l-4.08,0.195l-0.119,0.017l-0.154,0.008l-1.734,0.265l-2.064,0.297l-0.187,0.046l-0.263,0.04l-1.86,0.478l-1.7,0.415l-0.238,0.084l-0.303,0.078l-1.733,0.634l-1.645,0.575l-0.271,0.126l-0.282,0.103l-1.571,0.757l-1.673,0.777l-0.269,0.159l-0.227,0.109l-1.497,0.909l-1.652,0.977l-0.214,0.157l-0.165,0.101l-1.672,1.25l-1.411,1.037l-0.114,0.103l-0.097,0.073l-3.031,2.754l-0.008,0.007l-0.011,0.012l-2.751,3.027l-0.072,0.097l-0.103,0.114l-1.04,1.415l-1.248,1.668l-0.1,0.165l-0.158,0.215l-0.978,1.655l-0.907,1.493l-0.109,0.227l-0.16,0.27l-0.778,1.677l-0.755,1.566l-0.103,0.281l-0.126,0.273l-0.577,1.65l-0.633,1.727l-0.078,0.303l-0.083,0.239l-0.416,1.705l-0.477,1.854l-0.04,0.263l-0.046,0.188l-0.299,2.071l-0.264,1.727l-0.007,0.153l-0.018,0.12l-0.195,4.091l-0.001,0.011l-14.935,0Z" style="fill:#29605f;"/><text x="24.533px" y="57.706px" style="font-family:'OpenSans-Bold', 'Open Sans', sans-serif;font-weight:700;font-size:36px;fill:#29605f;">75%</text></g></g></svg>