<svg xmlns="http://www.w3.org/2000/svg" xmlns:xlink="http://www.w3.org/1999/xlink" version="1.1" x="0px" y="0px" viewBox="0 0 100 100" enable-background="new 0 0 100 100" xml:space="preserve"><g><path fill="#000000" d="M8.611,80.341H8.589c-1.516,0-2.749-1.23-2.749-2.747V25.896H1.719C0.773,25.896,0,26.669,0,27.613v56.849   c0,0.946,0.773,1.719,1.719,1.719h41.975c-15.338-5.549-31.287-5.844-34.47-5.844C8.83,80.337,8.617,80.341,8.611,80.341z"></path><path fill="#000000" d="M88.149,15.34c0.921,0,1.675,0.753,1.675,1.675v55.371c0,0.922-0.756,1.675-1.675,1.675   c0,0-18.585-0.402-35.936,6.271V21.289C64.116,13.61,88.149,15.34,88.149,15.34z"></path><path fill="#000000" d="M91.389,80.341h0.022c1.517,0,2.749-1.23,2.749-2.747V25.896h4.12c0.946,0,1.72,0.773,1.72,1.717v56.849   c0,0.946-0.773,1.719-1.72,1.719H56.307c15.338-5.549,31.286-5.844,34.47-5.844C91.17,80.337,91.384,80.341,91.389,80.341z"></path><path fill="#000000" d="M31.74,16.116v31.068l-6.347-6.349l-6.347,6.349V15.183c-4.288-0.049-7.195,0.158-7.195,0.158   c-0.92,0-1.675,0.753-1.675,1.675v55.371c0,0.922,0.755,1.675,1.675,1.675c0,0,18.585-0.402,35.936,6.271V21.289   C43.46,18.499,37.534,16.956,31.74,16.116z"></path><path fill="#000000" d="M25.393,35.328l3.667,3.667V14.359c-2.663-0.387-5.274-0.516-7.336-0.54v25.177L25.393,35.328z"></path></g></svg>