<?xml version="1.0" encoding="UTF-8" standalone="no"?><!DOCTYPE svg PUBLIC "-//W3C//DTD SVG 1.1//EN" "http://www.w3.org/Graphics/SVG/1.1/DTD/svg11.dtd"><svg width="100%" height="100%" viewBox="0 0 118 59" version="1.1" xmlns="http://www.w3.org/2000/svg" xmlns:xlink="http://www.w3.org/1999/xlink" xml:space="preserve" xmlns:serif="http://www.serif.com/" style="fill-rule:evenodd;clip-rule:evenodd;stroke-linejoin:round;stroke-miterlimit:1.41421;"><rect id="danger50" x="0" y="0" width="118" height="59" style="fill:none;"/><clipPath id="_clip1"><rect id="danger501" serif:id="danger50" x="0" y="0" width="118" height="59"/></clipPath><g clip-path="url(#_clip1)"><g><path d="M1.506,58.362l-0.006,-0.224c0,-31.735 25.765,-57.5 57.5,-57.5c31.735,0 57.5,25.765 57.5,57.5l-0.006,0.224l-15,0l0.012,-0.224c0,-23.46 -19.046,-42.506 -42.506,-42.506c-23.46,0 -42.506,19.046 -42.506,42.506l0.012,0.224l-15,0Z" style="fill:#ff8284;"/><path d="M59.206,0.638l0.014,0l0,14.934l-0.022,0.002l-2.012,0.096c-0.167,0.007 -0.333,0.015 -0.499,0.024l-1.569,0.075l-0.12,0.017l-0.153,0.007l-0.864,0.132c-0.817,0.096 -1.627,0.216 -2.429,0.358l-0.505,0.073l-0.188,0.046l-0.262,0.04l-0.411,0.106c-1.027,0.216 -2.04,0.47 -3.038,0.76l-0.111,0.027l-0.099,0.034l-0.075,0.023l-0.241,0.072l-0.126,0.033l-0.103,0.038c-13.329,4.138 -23.856,14.664 -27.997,27.991l-0.041,0.112l-0.033,0.128l-0.071,0.238l-0.024,0.079l-0.033,0.095l-0.028,0.112c-0.289,0.997 -0.542,2.009 -0.759,3.034l-0.106,0.414l-0.04,0.262l-0.046,0.189l-0.069,0.481c-0.144,0.812 -0.265,1.631 -0.362,2.457l-0.132,0.859l-0.007,0.153l-0.017,0.12l-0.076,1.582c-0.008,0.157 -0.016,0.314 -0.023,0.471l-0.097,2.038l-0.001,0.011l0,0l-14.929,0l-0.002,-0.077l0.251,-5.251l0.022,-0.29l0.377,-2.617l0.465,-3.043l0.699,-2.861l0.672,-2.617l0.961,-2.746l0.946,-2.586l1.16,-2.499l1.263,-2.621l1.374,-2.326l1.529,-2.517l1.824,-2.481l1.583,-2.117l0.189,-0.221l3.588,-3.947l3.947,-3.588l0.221,-0.189l2.117,-1.583l2.481,-1.824l2.517,-1.529l2.326,-1.374l2.621,-1.263l2.499,-1.16l2.586,-0.946l2.746,-0.961l2.617,-0.672l2.861,-0.699l3.043,-0.465l2.617,-0.377l0.289,-0.022l5.315,-0.254Z" style="fill:#7b335a;"/><text x="24.529px" y="57.706px" style="font-family:'OpenSans-Bold', 'Open Sans', sans-serif;font-weight:700;font-size:36px;fill:#7b335a;">50%</text></g></g></svg>