<?xml version="1.0" encoding="UTF-8" standalone="no"?><!DOCTYPE svg PUBLIC "-//W3C//DTD SVG 1.1//EN" "http://www.w3.org/Graphics/SVG/1.1/DTD/svg11.dtd"><svg width="100%" height="100%" viewBox="0 0 118 59" version="1.1" xmlns="http://www.w3.org/2000/svg" xmlns:xlink="http://www.w3.org/1999/xlink" xml:space="preserve" xmlns:serif="http://www.serif.com/" style="fill-rule:evenodd;clip-rule:evenodd;stroke-linejoin:round;stroke-miterlimit:1.41421;"><rect id="danger25" x="0" y="0" width="118" height="59" style="fill:none;"/><clipPath id="_clip1"><rect id="danger251" serif:id="danger25" x="0" y="0" width="118" height="59"/></clipPath><g clip-path="url(#_clip1)"><g><path d="M1.506,58.362l-0.006,-0.224c0,-31.735 25.765,-57.5 57.5,-57.5c31.735,0 57.5,25.765 57.5,57.5l-0.006,0.224l-15,0l0.012,-0.224c0,-23.46 -19.046,-42.506 -42.506,-42.506c-23.46,0 -42.506,19.046 -42.506,42.506l0.012,0.224l-15,0Z" style="fill:#ff8284;"/><path d="M28.898,28.134c-5.193,5.21 -9.045,11.758 -10.989,19.079c-0.995,3.645 -1.496,7.397 -1.504,11.149l-14.905,0l0,-0.018l0.249,-5.218l0.022,-0.29l0.378,-2.616l0.464,-3.044l0.699,-2.861l0.673,-2.617l0.96,-2.746l0.947,-2.587l1.16,-2.498l1.262,-2.621l1.375,-2.326l1.529,-2.517l1.823,-2.481l1.584,-2.117l0.189,-0.22l3.578,-3.938l0.01,-0.01l10.496,10.497Z" style="fill:#7b335a;"/><text x="24.524px" y="57.706px" style="font-family:'OpenSans-Bold', 'Open Sans', sans-serif;font-weight:700;font-size:36px;fill:#7b335a;">25%</text></g></g></svg>