<?xml version="1.0" encoding="UTF-8" standalone="no"?><!DOCTYPE svg PUBLIC "-//W3C//DTD SVG 1.1//EN" "http://www.w3.org/Graphics/SVG/1.1/DTD/svg11.dtd"><svg width="100%" height="100%" viewBox="0 0 83 83" version="1.1" xmlns="http://www.w3.org/2000/svg" xmlns:xlink="http://www.w3.org/1999/xlink" xml:space="preserve" xmlns:serif="http://www.serif.com/" style="fill-rule:evenodd;clip-rule:evenodd;stroke-linejoin:round;stroke-miterlimit:1.41421;"><rect id="download" x="0" y="0" width="81.787" height="81.787" style="fill:none;"/><g><circle cx="40.894" cy="40.894" r="37.179" style="fill:#7b335a;"/><clipPath id="_clip1"><path d="M62.06,38.151c0.399,-0.998 0.623,-2.089 0.623,-3.227c0,-4.943 -4.183,-8.954 -9.338,-8.954c-1.917,0 -3.706,0.559 -5.185,1.511c-2.694,-4.477 -7.723,-7.481 -13.492,-7.481c-8.599,0 -15.563,6.679 -15.563,14.924c0,0.252 0.009,0.504 0.019,0.756c-5.447,1.837 -9.358,6.818 -9.358,12.676c0,7.415 6.275,13.431 14.008,13.431l35.796,0c6.877,0 12.451,-5.344 12.451,-11.939c0,-5.774 -4.28,-10.596 -9.961,-11.697Zm-13.512,8.263l-9.994,9.823c-0.588,0.578 -1.555,0.578 -2.143,0l-9.994,-9.823c-0.958,-0.942 -0.275,-2.545 1.072,-2.545l6.201,0l0,-10.438c0,-0.821 0.682,-1.492 1.517,-1.492l4.551,0c0.835,0 1.517,0.671 1.517,1.492l0,10.438l6.201,0c1.347,0 2.03,1.603 1.072,2.545Z" clip-rule="nonzero"/></clipPath><g clip-path="url(#_clip1)"><rect x="5.502" y="15.736" width="70.783" height="50.315" style="fill:#fff;"/></g></g></svg>