<?xml version="1.0" encoding="UTF-8" standalone="no"?><!DOCTYPE svg PUBLIC "-//W3C//DTD SVG 1.1//EN" "http://www.w3.org/Graphics/SVG/1.1/DTD/svg11.dtd"><svg width="100%" height="100%" viewBox="0 0 83 83" version="1.1" xmlns="http://www.w3.org/2000/svg" xmlns:xlink="http://www.w3.org/1999/xlink" xml:space="preserve" xmlns:serif="http://www.serif.com/" style="fill-rule:evenodd;clip-rule:evenodd;stroke-linejoin:round;stroke-miterlimit:1.41421;"><rect id="guide" x="0" y="0" width="81.787" height="81.787" style="fill:none;"/><clipPath id="_clip1"><path d="M39.738,3.715c-20.951,0 -37.938,16.653 -37.938,37.179c0,20.538 16.987,37.179 37.938,37.179c20.951,0 37.937,-16.641 37.937,-37.179c0,-20.526 -16.986,-37.179 -37.937,-37.179Zm-0.759,15.934c3.353,0 6.07,2.717 6.07,6.07c0,3.352 -2.717,6.07 -6.07,6.07c-3.352,0 -6.07,-2.718 -6.07,-6.07c0,-3.353 2.718,-6.07 6.07,-6.07Zm9.864,37.691c0,0.974 -0.837,1.764 -1.87,1.764l-13.712,0c-1.032,0 -1.869,-0.79 -1.869,-1.764l0,-3.529c0,-0.974 0.837,-1.764 1.869,-1.764l1.87,0l0,-9.408l-1.87,0c-1.032,0 -1.869,-0.79 -1.869,-1.764l0,-3.528c0,-0.975 0.837,-1.765 1.869,-1.765l9.973,0c1.032,0 1.869,0.79 1.869,1.765l0,14.7l1.87,0c1.033,0 1.87,0.79 1.87,1.764l0,3.529Z" clip-rule="nonzero"/></clipPath><g clip-path="url(#_clip1)"><rect x="-1.993" y="-0.079" width="83.463" height="81.945" style="fill:#a2223b;"/></g></svg>