<?xml version="1.0" encoding="UTF-8" standalone="no"?><!DOCTYPE svg PUBLIC "-//W3C//DTD SVG 1.1//EN" "http://www.w3.org/Graphics/SVG/1.1/DTD/svg11.dtd"><svg width="100%" height="100%" viewBox="0 0 9492 3842" version="1.1" xmlns="http://www.w3.org/2000/svg" xmlns:xlink="http://www.w3.org/1999/xlink" xml:space="preserve" xmlns:serif="http://www.serif.com/" style="fill-rule:evenodd;clip-rule:evenodd;stroke-linejoin:round;stroke-miterlimit:1.41421;"><clipPath id="_clip1"><path d="M0,266.7c0,-13.825 11.123,-25.033 24.944,-25.033l5091.78,0c13.779,0 24.946,11.2 24.946,25.033l0,1316.6c0,13.825 -11.125,25.033 -24.946,25.033l-5091.78,0c-13.776,0 -24.944,-11.2 -24.944,-25.033l0,-1316.6Z"/></clipPath><g clip-path="url(#_clip1)"><rect x="-41.667" y="200" width="5225" height="1450" style="fill:#3e3e58;fill-opacity:0.298039;"/></g><clipPath id="_clip2"><path d="M0,1933.34c0,-13.809 11.123,-25.005 24.944,-25.005l5091.78,0c13.779,0 24.946,11.209 24.946,25.005l0,1858.33c0,13.809 -11.125,25.003 -24.946,25.003l-5091.78,0c-13.776,0 -24.944,-11.207 -24.944,-25.003l0,-1858.33Z"/></clipPath><g clip-path="url(#_clip2)"><rect x="-41.667" y="1866.67" width="5225" height="1991.67" style="fill:#3e3e58;fill-opacity:0.294118;"/></g><clipPath id="_clip3"><path d="M5191.67,0l4233.33,0c36.821,0 66.667,29.846 66.667,66.667l0,3708.33c0,36.819 -29.846,66.667 -66.667,66.667l-4233.33,0c-36.821,0 -66.667,-29.848 -66.667,-66.667l0,-3708.33c0,-36.821 29.846,-66.667 66.667,-66.667Z"/></clipPath><g clip-path="url(#_clip3)"><rect x="5083.33" y="-41.667" width="4450" height="3925" style="fill:#fff;"/></g><g transform="matrix(4.16667,0,0,4.16667,-1300,-12441.7)"><text x="394px" y="3164px" style="font-family:'ProximaNovaACond-Semibold', 'Proxima Nova Alt Condensed';font-weight:600;font-size:72px;fill:#fcfcfc;">District or School Information</text><text x="394px" y="3230px" style="font-family:'OpenSans-Regular', 'Open Sans', sans-serif;font-size:36px;fill:#fcfcfc;">Find basic information such as</text><text x="394px" y="3270px" style="font-family:'OpenSans-Regular', 'Open Sans', sans-serif;font-size:36px;fill:#fcfcfc;">add</text><text x="458.143px" y="3270px" style="font-family:'OpenSans-Regular', 'Open Sans', sans-serif;font-size:36px;fill:#fcfcfc;">r</text><text x="472.817px" y="3270px" style="font-family:'OpenSans-Regular', 'Open Sans', sans-serif;font-size:36px;fill:#fcfcfc;">ess, superintendent,</text><text x="823.202px" y="3270px" style="font-family:'OpenSans-Regular', 'Open Sans', sans-serif;font-size:36px;fill:#fcfcfc;">o</text><text x="844.925px" y="3270px" style="font-family:'OpenSans-Regular', 'Open Sans', sans-serif;font-size:36px;fill:#fcfcfc;">ve</text><text x="883.158px" y="3270px" style="font-family:'OpenSans-Regular', 'Open Sans', sans-serif;font-size:36px;fill:#fcfcfc;">r</text><text x="897.832px" y="3270px" style="font-family:'OpenSans-Regular', 'Open Sans', sans-serif;font-size:36px;fill:#fcfcfc;">all</text><text x="394px" y="3310px" style="font-family:'OpenSans-Regular', 'Open Sans', sans-serif;font-size:36px;fill:#fcfcfc;">Accountability G</text><text x="665.512px" y="3310px" style="font-family:'OpenSans-Regular', 'Open Sans', sans-serif;font-size:36px;fill:#fcfcfc;">r</text><text x="680.186px" y="3310px" style="font-family:'OpenSans-Regular', 'Open Sans', sans-serif;font-size:36px;fill:#fcfcfc;">ade.</text><text x="394px" y="3628px" style="font-family:'ProximaNovaACond-Semibold', 'Proxima Nova Alt Condensed';font-weight:600;font-size:72px;fill:#fcfcfc;">Detailed Accountability Data</text><text x="394px" y="3698px" style="font-family:'OpenSans-Regular', 'Open Sans', sans-serif;font-size:36px;fill:#fcfcfc;">Tiles</text><text x="478.85px" y="3698px" style="font-family:'OpenSans-Regular', 'Open Sans', sans-serif;font-size:36px;fill:#fcfcfc;">r</text><text x="493.524px" y="3698px" style="font-family:'OpenSans-Regular', 'Open Sans', sans-serif;font-size:36px;fill:#fcfcfc;">ep</text><text x="535.782px" y="3698px" style="font-family:'OpenSans-Regular', 'Open Sans', sans-serif;font-size:36px;fill:#fcfcfc;">r</text><text x="550.457px" y="3698px" style="font-family:'OpenSans-Regular', 'Open Sans', sans-serif;font-size:36px;fill:#fcfcfc;">esent a logical g</text><text x="816.572px" y="3698px" style="font-family:'OpenSans-Regular', 'Open Sans', sans-serif;font-size:36px;fill:#fcfcfc;">r</text><text x="831.246px" y="3698px" style="font-family:'OpenSans-Regular', 'Open Sans', sans-serif;font-size:36px;fill:#fcfcfc;">ouping of data. Click a tile to access</text><text x="394px" y="3738px" style="font-family:'OpenSans-Regular', 'Open Sans', sans-serif;font-size:36px;fill:#fcfcfc;">detailed information li</text><text x="765.373px" y="3738px" style="font-family:'OpenSans-Regular', 'Open Sans', sans-serif;font-size:36px;fill:#fcfcfc;">k</text><text x="784.249px" y="3738px" style="font-family:'OpenSans-Regular', 'Open Sans', sans-serif;font-size:36px;fill:#fcfcfc;">e school/district/state comparisons and</text><text x="394px" y="3778px" style="font-family:'OpenSans-Regular', 'Open Sans', sans-serif;font-size:36px;fill:#fcfcfc;">b</text><text x="416.061px" y="3778px" style="font-family:'OpenSans-Regular', 'Open Sans', sans-serif;font-size:36px;fill:#fcfcfc;">r</text><text x="430.735px" y="3778px" style="font-family:'OpenSans-Regular', 'Open Sans', sans-serif;font-size:36px;fill:#fcfcfc;">ea</text><text x="470.954px" y="3778px" style="font-family:'OpenSans-Regular', 'Open Sans', sans-serif;font-size:36px;fill:#fcfcfc;">k</text><text x="489.83px" y="3778px" style="font-family:'OpenSans-Regular', 'Open Sans', sans-serif;font-size:36px;fill:#fcfcfc;">d</text><text x="511.89px" y="3778px" style="font-family:'OpenSans-Regular', 'Open Sans', sans-serif;font-size:36px;fill:#fcfcfc;">o</text><text x="533.614px" y="3778px" style="font-family:'OpenSans-Regular', 'Open Sans', sans-serif;font-size:36px;fill:#fcfcfc;">wns</text><text x="610.237px" y="3778px" style="font-family:'OpenSans-Regular', 'Open Sans', sans-serif;font-size:36px;fill:#fcfcfc;">b</text><text x="632.277px" y="3778px" style="font-family:'OpenSans-Regular', 'Open Sans', sans-serif;font-size:36px;fill:#fcfcfc;">y gender, subg</text><text x="877.966px" y="3778px" style="font-family:'OpenSans-Regular', 'Open Sans', sans-serif;font-size:36px;fill:#fcfcfc;">r</text><text x="892.741px" y="3778px" style="font-family:'OpenSans-Regular', 'Open Sans', sans-serif;font-size:36px;fill:#fcfcfc;">oup and special populations.</text></g><clipPath id="_clip4"><path d="M5191.67,0l4233.33,0c36.821,0 66.667,29.846 66.667,66.667l0,183.333l-4366.67,0l0,-183.333c0,-36.821 29.846,-66.667 66.667,-66.667Z"/></clipPath><g clip-path="url(#_clip4)"><rect x="5083.33" y="-41.667" width="4450" height="333.333" style="fill:#fff;"/></g><g><clipPath id="_clip5"><rect x="5125" y="241.667" width="4366.67" height="1375"/></clipPath><g clip-path="url(#_clip5)"><rect x="-1300" y="-12441.7" width="11991.7" height="19333.3" style="fill:url(#_Linear6);"/><rect x="-1300" y="-12441.7" width="11991.7" height="19333.3" style="fill:url(#_Linear7);"/></g></g><clipPath id="_clip8"><path d="M5591.67,175c27.612,0 50,-22.387 50,-50c0,-27.613 -22.388,-50 -50,-50c-27.613,0 -50,22.387 -50,50c0,27.613 22.387,50 50,50Z"/></clipPath><g clip-path="url(#_clip8)"><rect x="5500" y="33.333" width="183.333" height="183.333" style="fill:#417505;"/></g><clipPath id="_clip9"><path d="M5616.67,316.667l516.666,0c41.421,0 75,33.579 75,75c0,41.42 -33.579,75 -75,75l-516.666,0c-41.421,0 -75,-33.58 -75,-75c0,-41.421 33.579,-75 75,-75Z"/></clipPath><g clip-path="url(#_clip9)"><rect x="5500" y="275" width="750" height="233.333" style="fill:#f1f1f1;"/></g><clipPath id="_clip10"><path d="M5866.67,983.333l808.333,0c41.421,0 75,33.58 75,75c0,41.421 -33.579,75 -75,75l-808.333,0c-41.421,0 -75,-33.579 -75,-75c0,-41.42 33.579,-75 75,-75Z"/></clipPath><g clip-path="url(#_clip10)"><rect x="5750" y="941.667" width="1041.67" height="233.333" style="fill:#f1f1f1;"/></g><clipPath id="_clip11"><path d="M5591.67,2366.67l858.333,0c27.612,0 50,22.387 50,50c0,27.612 -22.388,50 -50,50l-858.333,0c-27.613,0 -50,-22.388 -50,-50c0,-27.613 22.387,-50 50,-50Z"/></clipPath><g clip-path="url(#_clip11)"><rect x="5500" y="2325" width="1041.67" height="183.333" style="fill:#29605f;"/></g><clipPath id="_clip12"><path d="M5591.67,2650l858.333,0c27.612,0 50,22.388 50,50c0,27.614 -22.388,50 -50,50l-858.333,0c-27.613,0 -50,-22.386 -50,-50c0,-27.612 22.387,-50 50,-50Z"/></clipPath><g clip-path="url(#_clip12)"><rect x="5500" y="2608.33" width="1041.67" height="183.333" style="fill:#dadada;"/></g><clipPath id="_clip13"><path d="M5591.67,2533.33l858.333,0c27.612,0 50,22.388 50,50c0,27.613 -22.388,50 -50,50l-858.333,0c-27.613,0 -50,-22.387 -50,-50c0,-27.612 22.387,-50 50,-50Z"/></clipPath><g clip-path="url(#_clip13)"><rect x="5500" y="2491.67" width="1041.67" height="183.333" style="fill:#dadada;"/></g><clipPath id="_clip14"><path d="M5591.67,2866.67l858.333,0c27.612,0 50,22.386 50,50c0,27.614 -22.388,50 -50,50l-858.333,0c-27.613,0 -50,-22.386 -50,-50c0,-27.614 22.387,-50 50,-50Z"/></clipPath><g clip-path="url(#_clip14)"><rect x="5500" y="2825" width="1041.67" height="183.333" style="fill:#29605f;"/></g><clipPath id="_clip15"><path d="M5591.67,3150l858.333,0c27.612,0 50,22.386 50,50c0,27.614 -22.388,50 -50,50l-858.333,0c-27.613,0 -50,-22.386 -50,-50c0,-27.614 22.387,-50 50,-50Z"/></clipPath><g clip-path="url(#_clip15)"><rect x="5500" y="3108.33" width="1041.67" height="183.333" style="fill:#dadada;"/></g><clipPath id="_clip16"><path d="M5591.67,3033.33l858.333,0c27.612,0 50,22.386 50,50c0,27.615 -22.388,50 -50,50l-858.333,0c-27.613,0 -50,-22.385 -50,-50c0,-27.614 22.387,-50 50,-50Z"/></clipPath><g clip-path="url(#_clip16)"><rect x="5500" y="2991.67" width="1041.67" height="183.333" style="fill:#dadada;"/></g><clipPath id="_clip17"><path d="M5866.67,1233.33l808.333,0c41.421,0 75,33.58 75,75c0,41.421 -33.579,75 -75,75l-808.333,0c-41.421,0 -75,-33.579 -75,-75c0,-41.42 33.579,-75 75,-75Z"/></clipPath><g clip-path="url(#_clip17)"><rect x="5750" y="1191.67" width="1041.67" height="233.333" style="fill:#f1f1f1;"/></g><clipPath id="_clip18"><rect x="5125" y="1616.67" width="4366.67" height="291.667"/></clipPath><g clip-path="url(#_clip18)"><rect x="5083.33" y="1575" width="4450" height="375" style="fill:#ededed;"/></g><clipPath id="_clip19"><path d="M5616.67,733.333l2400,0c41.42,0 75,33.58 75,75c0,41.421 -33.58,75 -75,75l-2400,0c-41.421,0 -75,-33.579 -75,-75c0,-41.42 33.579,-75 75,-75Z"/></clipPath><g clip-path="url(#_clip19)"><rect x="5500" y="691.667" width="2633.33" height="233.333" style="fill:#f1f1f1;"/></g><clipPath id="_clip20"><path d="M7116.67,983.333l258.333,0c41.421,0 75,33.58 75,75l0,258.334c0,41.42 -33.579,75 -75,75l-258.333,0c-41.421,0 -75,-33.58 -75,-75l0,-258.334c0,-41.42 33.579,-75 75,-75Z"/></clipPath><g clip-path="url(#_clip20)"><rect x="7000" y="941.667" width="491.667" height="491.667" style="fill:#f1f1f1;"/></g><clipPath id="_clip21"><path d="M5616.67,983.333c41.42,0 75,33.58 75,75c0,41.421 -33.58,75 -75,75c-41.421,0 -75,-33.579 -75,-75c0,-41.42 33.579,-75 75,-75Z"/></clipPath><g clip-path="url(#_clip21)"><rect x="5500" y="941.667" width="233.333" height="233.333" style="fill:#1b9bb1;"/></g><clipPath id="_clip22"><path d="M5616.67,1233.33c41.42,0 75,33.58 75,75c0,41.421 -33.58,75 -75,75c-41.421,0 -75,-33.579 -75,-75c0,-41.42 33.579,-75 75,-75Z"/></clipPath><g clip-path="url(#_clip22)"><rect x="5500" y="1191.67" width="233.333" height="233.333" style="fill:#1b9bb1;"/></g><clipPath id="_clip23"><path d="M5433.33,175c27.613,0 50,-22.387 50,-50c0,-27.613 -22.387,-50 -50,-50c-27.612,0 -50,22.387 -50,50c0,27.613 22.388,50 50,50Z"/></clipPath><g clip-path="url(#_clip23)"><rect x="5341.67" y="33.333" width="183.333" height="183.333" style="fill:#f8e71c;"/></g><clipPath id="_clip24"><path d="M5275,175c27.612,0 50,-22.387 50,-50c0,-27.613 -22.388,-50 -50,-50c-27.613,0 -50,22.387 -50,50c0,27.613 22.387,50 50,50Z"/></clipPath><g clip-path="url(#_clip24)"><rect x="5183.33" y="33.333" width="183.333" height="183.333" style="fill:#d0021b;"/></g><clipPath id="_clip25"><path d="M8866.67,316.667l308.333,0c41.421,0 75,33.579 75,75c0,41.42 -33.579,75 -75,75l-308.333,0c-41.421,0 -75,-33.58 -75,-75c0,-41.421 33.579,-75 75,-75Z"/></clipPath><g clip-path="url(#_clip25)"><rect x="8750" y="275" width="541.667" height="233.333" style="fill:#f1f1f1;"/></g><clipPath id="_clip26"><path d="M8366.67,316.667l308.333,0c41.421,0 75,33.579 75,75c0,41.42 -33.579,75 -75,75l-308.333,0c-41.421,0 -75,-33.58 -75,-75c0,-41.421 33.579,-75 75,-75Z"/></clipPath><g clip-path="url(#_clip26)"><rect x="8250" y="275" width="541.667" height="233.333" style="fill:#f1f1f1;"/></g><clipPath id="_clip27"><path d="M7046.44,2941.67c-59.334,53.885 -96.442,131.014 -96.442,216.666l300,0l-253.963,0c0,-72.542 31.446,-137.861 81.638,-183.418l-31.233,-33.248Z"/></clipPath><g clip-path="url(#_clip27)"><rect x="6908.33" y="2900" width="383.333" height="300" style="fill:#196073;"/></g><clipPath id="_clip28"><path d="M7504.28,3158.33l45.704,0l0.021,-1.223l-0.233,-9.311l-0.18,-5.664l-0.679,-8.969l-0.475,-5.976l-0.745,-5.92c-1.401,-11.54 -3.471,-23.02 -6.217,-34.342l-0.629,-2.747l-2.763,-9.954l-1.196,-4.244l-2.841,-8.596l-1.825,-5.429l-2.804,-7.28l-2.551,-6.512l-2.662,-6.01l-3.358,-7.482l-2.429,-4.829l-4.23,-8.309l-2.1,-3.708l-5.162,-9.04l-1.067,-1.68l-6.7,-10.526l-3.429,-4.859l-5.029,-7.101l-3.071,-3.934l-6.158,-7.83l-3.292,-3.825l-6.5,-7.458l-4.087,-4.317l-6.088,-6.306l-5.271,-5.061l-5.212,-4.884l-6.409,-5.587l-4.454,-3.768l-7.321,-5.795l-3.983,-3.041l-7.925,-5.675l-3.892,-2.669l-8.162,-5.27l-4.204,-2.587l-8.009,-4.636l-4.912,-2.694l-7.496,-3.867l-5.917,-2.874l-6.712,-3.056l-7.075,-3.016l-5.821,-2.31l-8.196,-3.028l-5,-1.706l-9.108,-2.868l-4.438,-1.269l-9.679,-2.539l-4.275,-0.993l-9.821,-2.075l-4.595,-0.826l-9.509,-1.533l-5.425,-0.695l-8.758,-0.983l-6.713,-0.515l-7.645,-0.489l-8.275,-0.21l-6.371,-0.1l-9.259,0.235l-5.604,0.182l-8.966,0.687l-5.871,0.472l-6.15,0.786c-11.275,1.398 -22.492,3.448 -33.6,6.172l-2.975,0.692l-9.684,2.726l-4.416,1.263l-8.342,2.797l-5.587,1.905l-7.017,2.744l-6.679,2.651l-5.725,2.572l-7.671,3.495l-4.488,2.29l-8.562,4.416l-3.192,1.84l-9.462,5.478l-0.167,0.105l-11.925,7.7l-5.825,4.172l-6.021,4.327l-4.291,3.395l-7.388,5.895l-4.042,3.525l-7.154,6.332l-0.854,0.819l30.988,33.78l0.029,0.03l-0.029,-0.03l0.754,-0.664l0.829,-0.796l5.225,-4.557l2.95,-2.609l0.475,-0.382l0.504,-0.437l5.758,-4.561l3.33,-2.654l0.291,-0.21l0.146,-0.115l5.042,-3.61l4.879,-3.506l9.829,-6.334l0.371,-0.237l0.004,-0.005l0.421,-0.269l7.487,-4.31l2.646,-1.533l0.163,-0.082l0.575,-0.332l6.591,-3.366l3.542,-1.827l0.338,-0.153l0.625,-0.319l5.791,-2.604l4.417,-2.01l0.508,-0.202l0.579,-0.262l4.992,-1.95l5.375,-2.135l0.65,-0.222l0.458,-0.18l4.184,-1.401l6.425,-2.19l0.725,-0.207l0.304,-0.102l3.321,-0.936l7.616,-2.177l0.696,-0.163l0.129,-0.034l2.221,-0.51c9.467,-2.357 19.142,-4.159 28.917,-5.303l4.742,-0.614l0.137,-0.01l0.4,-0.053l4.688,-0.357l6.85,-0.554l0.625,-0.02l0.641,-0.047l4.175,-0.107l6.659,-0.215l1.108,0.017l1.037,-0.027l4.409,0.112l5.546,0.088l1.4,0.09l1.625,0.042l4.891,0.374l4.159,0.265l1.479,0.167l2.275,0.172l5.179,0.665l3.1,0.347l1.454,0.234l2.888,0.37l5.195,0.936l2.425,0.39l1.434,0.304l3.366,0.604l4.975,1.156l2.1,0.445l1.492,0.392l3.633,0.844l4.588,1.31l2.05,0.54l1.675,0.527l3.654,1.046l4.088,1.393l2.208,0.694l1.996,0.739l3.425,1.166l3.541,1.405l2.509,0.927l2.391,1.021l3.013,1.196l3,1.366l2.887,1.23l2.771,1.346l2.513,1.144l2.521,1.3l3.283,1.593l3.037,1.668l2.03,1.046l2.154,1.248l3.641,1.998l3.113,1.915l1.654,0.956l1.933,1.249l3.917,2.409l2.971,2.037l1.408,0.911l1.904,1.364l4.067,2.789l2.621,2l1.296,0.928l2.1,1.663l4.037,3.079l2.138,1.81l1.254,0.988l2.542,2.22l3.812,3.223l1.588,1.488l1.208,1.054l3.233,3.103l3.375,3.161l1.063,1.101l1.087,1.044l4.092,4.324l2.808,2.909l0.625,0.716l0.825,0.871l4.717,5.483l2.396,2.752l0.354,0.447l0.458,0.534l4.809,6.162l2.358,2.996l0.187,0.267l0.134,0.17l4.258,6.032l2.808,3.964l5.45,8.579l1.075,1.688l0.017,0.035l0.254,0.399l4.059,7.151l1.741,3.054l0.096,0.187l0.317,0.559l3.225,6.404l1.933,3.8l0.158,0.36l0.309,0.611l2.508,5.66l2.075,4.62l0.204,0.53l0.254,0.568l1.884,4.886l2.171,5.55l0.225,0.671l0.175,0.451l1.35,4.084l2.216,6.596l0.209,0.742l0.095,0.293l0.896,3.229l2.196,7.788l0.163,0.709l0.037,0.124l0.475,2.1c2.35,9.553 4.15,19.33 5.304,29.35l0.6,4.685l0.009,0.138l0.05,0.401l0.358,4.725l0.55,6.9l0.017,0.626l0.05,0.648l0.104,4.187l0.216,6.725l-0.016,1.118l0.025,1.04l-0.042,0Z"/></clipPath><g clip-path="url(#_clip28)"><rect x="7008.33" y="2816.67" width="583.333" height="383.333" style="fill:#dadada;"/></g><clipPath id="_clip29"><path d="M8379.77,2941.67c-59.333,53.885 -96.442,131.014 -96.442,216.666l300,0l-253.962,0c0,-72.542 31.446,-137.861 81.637,-183.418l-31.233,-33.248Z"/></clipPath><g clip-path="url(#_clip29)"><rect x="8241.67" y="2900" width="383.333" height="300" style="fill:#196073;"/></g><clipPath id="_clip30"><path d="M8837.61,3158.33l45.704,0l0.021,-1.223l-0.233,-9.311l-0.179,-5.664l-0.679,-8.969l-0.475,-5.976l-0.746,-5.92c-1.4,-11.54 -3.471,-23.02 -6.217,-34.342l-0.629,-2.747l-2.763,-9.954l-1.195,-4.244l-2.842,-8.596l-1.825,-5.429l-2.804,-7.28l-2.55,-6.512l-2.663,-6.01l-3.358,-7.482l-2.429,-4.829l-4.229,-8.309l-2.1,-3.708l-5.163,-9.04l-1.066,-1.68l-6.7,-10.526l-3.43,-4.859l-5.029,-7.101l-3.071,-3.934l-6.158,-7.83l-3.292,-3.825l-6.5,-7.458l-4.087,-4.317l-6.088,-6.306l-5.27,-5.061l-5.213,-4.884l-6.408,-5.587l-4.454,-3.768l-7.321,-5.795l-3.984,-3.041l-7.925,-5.675l-3.891,-2.669l-8.163,-5.27l-4.204,-2.587l-8.008,-4.636l-4.913,-2.694l-7.496,-3.867l-5.916,-2.874l-6.713,-3.056l-7.075,-3.016l-5.821,-2.31l-8.195,-3.028l-5.001,-1.706l-9.108,-2.868l-4.437,-1.269l-9.679,-2.539l-4.275,-0.993l-9.821,-2.075l-4.596,-0.826l-9.509,-1.533l-5.425,-0.695l-8.758,-0.983l-6.712,-0.515l-7.646,-0.489l-8.275,-0.21l-6.371,-0.1l-9.258,0.235l-5.605,0.182l-8.966,0.687l-5.871,0.472l-6.15,0.786c-11.275,1.398 -22.492,3.448 -33.6,6.172l-2.975,0.692l-9.683,2.726l-4.417,1.263l-8.342,2.797l-5.587,1.905l-7.017,2.744l-6.679,2.651l-5.725,2.572l-7.671,3.495l-4.487,2.29l-8.563,4.416l-3.192,1.84l-9.462,5.478l-0.167,0.105l-11.925,7.7l-5.825,4.172l-6.021,4.327l-4.291,3.395l-7.388,5.895l-4.041,3.525l-7.155,6.332l-0.854,0.819l30.988,33.78l0.029,0.03l-0.029,-0.03l0.754,-0.664l0.829,-0.796l5.225,-4.557l2.95,-2.609l0.475,-0.382l0.504,-0.437l5.759,-4.561l3.329,-2.654l0.291,-0.21l0.146,-0.115l5.042,-3.61l4.879,-3.506l9.829,-6.334l0.371,-0.237l0.004,-0.005l0.421,-0.269l7.488,-4.31l2.645,-1.533l0.163,-0.082l0.575,-0.332l6.592,-3.366l3.541,-1.827l0.338,-0.153l0.625,-0.319l5.791,-2.604l4.417,-2.01l0.508,-0.202l0.58,-0.262l4.991,-1.95l5.375,-2.135l0.65,-0.222l0.459,-0.18l4.183,-1.401l6.425,-2.19l0.725,-0.207l0.304,-0.102l3.321,-0.936l7.617,-2.177l0.695,-0.163l0.13,-0.034l2.22,-0.51c9.467,-2.357 19.142,-4.159 28.917,-5.303l4.742,-0.614l0.137,-0.01l0.4,-0.053l4.688,-0.357l6.85,-0.554l0.625,-0.02l0.641,-0.047l4.175,-0.107l6.659,-0.215l1.108,0.017l1.038,-0.027l4.408,0.112l5.546,0.088l1.4,0.09l1.625,0.042l4.891,0.374l4.159,0.265l1.479,0.167l2.275,0.172l5.179,0.665l3.1,0.347l1.454,0.234l2.888,0.37l5.196,0.936l2.425,0.39l1.433,0.304l3.367,0.604l4.975,1.156l2.1,0.445l1.491,0.392l3.634,0.844l4.587,1.31l2.05,0.54l1.675,0.527l3.654,1.046l4.088,1.393l2.208,0.694l1.996,0.739l3.425,1.166l3.542,1.405l2.508,0.927l2.392,1.021l3.012,1.196l3,1.366l2.888,1.23l2.77,1.346l2.513,1.144l2.521,1.3l3.283,1.593l3.038,1.668l2.029,1.046l2.154,1.248l3.642,1.998l3.112,1.915l1.654,0.956l1.934,1.249l3.916,2.409l2.971,2.037l1.408,0.911l1.905,1.364l4.066,2.789l2.621,2l1.296,0.928l2.1,1.663l4.037,3.079l2.138,1.81l1.254,0.988l2.542,2.22l3.812,3.223l1.588,1.488l1.208,1.054l3.233,3.103l3.375,3.161l1.063,1.101l1.087,1.044l4.092,4.324l2.808,2.909l0.625,0.716l0.825,0.871l4.717,5.483l2.396,2.752l0.354,0.447l0.458,0.534l4.809,6.162l2.358,2.996l0.188,0.267l0.133,0.17l4.258,6.032l2.809,3.964l5.45,8.579l1.075,1.688l0.016,0.035l0.254,0.399l4.059,7.151l1.741,3.054l0.096,0.187l0.317,0.559l3.225,6.404l1.933,3.8l0.159,0.36l0.308,0.611l2.508,5.66l2.075,4.62l0.204,0.53l0.255,0.568l1.883,4.886l2.171,5.55l0.225,0.671l0.175,0.451l1.35,4.084l2.216,6.596l0.209,0.742l0.096,0.293l0.895,3.229l2.196,7.788l0.163,0.709l0.037,0.124l0.475,2.1c2.35,9.553 4.15,19.33 5.304,29.35l0.6,4.685l0.009,0.138l0.05,0.401l0.358,4.725l0.55,6.9l0.017,0.626l0.05,0.648l0.104,4.187l0.217,6.725l-0.017,1.118l0.025,1.04l-0.042,0Z"/></clipPath><g clip-path="url(#_clip30)"><rect x="8341.67" y="2816.67" width="583.333" height="383.333" style="fill:#dadada;"/></g><clipPath id="_clip31"><path d="M8120.23,2941.67c59.333,53.885 96.442,131.014 96.442,216.666l-46.038,0l-253.962,0l253.962,0c0,-72.542 -31.446,-137.861 -81.637,-183.418l31.233,-33.248Z"/></clipPath><g clip-path="url(#_clip31)"><rect x="7875" y="2900" width="383.333" height="300" style="fill:#dadada;"/></g><clipPath id="_clip32"><path d="M7662.39,3158.33l-45.704,0l-0.021,-1.223l0.233,-9.311l0.179,-5.664l0.679,-8.969l0.475,-5.976l0.746,-5.92c1.4,-11.54 3.471,-23.02 6.217,-34.342l0.629,-2.747l2.762,-9.954l1.196,-4.244l2.842,-8.596l1.825,-5.429l2.804,-7.28l2.55,-6.512l2.663,-6.01l3.358,-7.482l2.429,-4.829l4.229,-8.309l2.1,-3.708l5.163,-9.04l1.066,-1.68l6.7,-10.526l3.43,-4.859l5.029,-7.101l3.071,-3.934l6.158,-7.83l3.292,-3.825l6.5,-7.458l4.087,-4.317l6.088,-6.306l5.27,-5.061l5.213,-4.884l6.408,-5.587l4.454,-3.768l7.321,-5.795l3.984,-3.041l7.925,-5.675l3.891,-2.669l8.163,-5.27l4.204,-2.587l8.008,-4.636l4.913,-2.694l7.496,-3.867l5.916,-2.874l6.713,-3.056l7.075,-3.016l5.821,-2.31l8.196,-3.028l5,-1.706l9.108,-2.868l4.437,-1.269l9.679,-2.539l4.275,-0.993l9.821,-2.075l4.596,-0.826l9.509,-1.533l5.425,-0.695l8.758,-0.983l6.712,-0.515l7.646,-0.489l8.275,-0.21l6.371,-0.1l9.258,0.235l5.605,0.182l8.966,0.687l5.871,0.472l6.15,0.786c11.275,1.398 22.492,3.448 33.6,6.172l2.975,0.692l9.683,2.726l4.417,1.263l8.342,2.797l5.587,1.905l7.017,2.744l6.679,2.651l5.725,2.572l7.671,3.495l4.487,2.29l8.563,4.416l3.191,1.84l9.463,5.478l0.167,0.105l11.925,7.7l5.825,4.172l6.02,4.327l4.292,3.395l7.388,5.895l4.041,3.525l7.154,6.332l0.855,0.819l-30.988,33.78l-0.029,0.03l0.029,-0.03l-0.754,-0.664l-0.829,-0.796l-5.225,-4.557l-2.95,-2.609l-0.475,-0.382l-0.504,-0.437l-5.759,-4.561l-3.329,-2.654l-0.292,-0.21l-0.145,-0.115l-5.042,-3.61l-4.879,-3.506l-9.829,-6.334l-0.371,-0.237l-0.004,-0.005l-0.421,-0.269l-7.488,-4.31l-2.645,-1.533l-0.163,-0.082l-0.575,-0.332l-6.592,-3.366l-3.541,-1.827l-0.338,-0.153l-0.625,-0.319l-5.792,-2.604l-4.416,-2.01l-0.508,-0.202l-0.58,-0.262l-4.991,-1.95l-5.375,-2.135l-0.65,-0.222l-0.459,-0.18l-4.183,-1.401l-6.425,-2.19l-0.725,-0.207l-0.304,-0.102l-3.321,-0.936l-7.617,-2.177l-0.696,-0.163l-0.129,-0.034l-2.221,-0.51c-9.466,-2.357 -19.141,-4.159 -28.916,-5.303l-4.742,-0.614l-0.137,-0.01l-0.4,-0.053l-4.688,-0.357l-6.85,-0.554l-0.625,-0.02l-0.642,-0.047l-4.175,-0.107l-6.658,-0.215l-1.108,0.017l-1.038,-0.027l-4.408,0.112l-5.546,0.088l-1.4,0.09l-1.625,0.042l-4.892,0.374l-4.158,0.265l-1.479,0.167l-2.275,0.172l-5.179,0.665l-3.1,0.347l-1.454,0.234l-2.888,0.37l-5.196,0.936l-2.425,0.39l-1.433,0.304l-3.367,0.604l-4.975,1.156l-2.1,0.445l-1.491,0.392l-3.634,0.844l-4.587,1.31l-2.05,0.54l-1.675,0.527l-3.654,1.046l-4.088,1.393l-2.208,0.694l-1.996,0.739l-3.425,1.166l-3.542,1.405l-2.508,0.927l-2.392,1.021l-3.012,1.196l-3,1.366l-2.888,1.23l-2.77,1.346l-2.513,1.144l-2.521,1.3l-3.283,1.593l-3.038,1.668l-2.029,1.046l-2.154,1.248l-3.642,1.998l-3.112,1.915l-1.654,0.956l-1.934,1.249l-3.916,2.409l-2.971,2.037l-1.408,0.911l-1.905,1.364l-4.066,2.789l-2.621,2l-1.296,0.928l-2.1,1.663l-4.037,3.079l-2.138,1.81l-1.254,0.988l-2.542,2.22l-3.812,3.223l-1.588,1.488l-1.208,1.054l-3.233,3.103l-3.375,3.161l-1.063,1.101l-1.087,1.044l-4.092,4.324l-2.808,2.909l-0.625,0.716l-0.825,0.871l-4.717,5.483l-2.396,2.752l-0.354,0.447l-0.458,0.534l-4.809,6.162l-2.358,2.996l-0.188,0.267l-0.133,0.17l-4.258,6.032l-2.809,3.964l-5.45,8.579l-1.075,1.688l-0.016,0.035l-0.254,0.399l-4.059,7.151l-1.741,3.054l-0.096,0.187l-0.317,0.559l-3.225,6.404l-1.933,3.8l-0.159,0.36l-0.308,0.611l-2.508,5.66l-2.075,4.62l-0.204,0.53l-0.255,0.568l-1.883,4.886l-2.171,5.55l-0.225,0.671l-0.175,0.451l-1.35,4.084l-2.216,6.596l-0.209,0.742l-0.096,0.293l-0.895,3.229l-2.196,7.788l-0.163,0.709l-0.037,0.124l-0.475,2.1c-2.35,9.553 -4.15,19.33 -5.304,29.35l-0.6,4.685l-0.009,0.138l-0.05,0.401l-0.358,4.725l-0.55,6.9l-0.017,0.626l-0.05,0.648l-0.104,4.187l-0.217,6.725l0.017,1.118l-0.025,1.04l0.042,0Z"/></clipPath><g clip-path="url(#_clip32)"><rect x="7575" y="2816.67" width="583.333" height="383.333" style="fill:#196073;"/></g><clipPath id="_clip33"><path d="M7090.95,2641.67l26.008,0l0,-24.713l24.713,0l0,-26.008l-24.713,0l0,-24.279l-26.008,0l0,24.279l-24.279,0l0,26.008l24.279,0l0,24.713Z" clip-rule="nonzero"/></clipPath><g clip-path="url(#_clip33)"><rect x="7025" y="2525" width="158.333" height="158.333" style="fill:#29605f;"/></g><clipPath id="_clip34"><rect x="7216.67" y="2616.67" width="75" height="25" clip-rule="nonzero"/></clipPath><g clip-path="url(#_clip34)"><rect x="7175" y="2575" width="158.333" height="108.333" style="fill:#29605f;"/></g><clipPath id="_clip35"><rect x="7216.67" y="2575" width="75" height="25" clip-rule="nonzero"/></clipPath><g clip-path="url(#_clip35)"><rect x="7175" y="2533.33" width="158.333" height="108.333" style="fill:#29605f;"/></g><clipPath id="_clip36"><path d="M7350,2430.77c0,-35.471 -28.633,-64.104 -64.104,-64.104l-205.125,0c-35.471,0 -64.104,28.633 -64.104,64.104l0,205.125c0,35.471 28.633,64.104 64.104,64.104l205.125,0c35.471,0 64.104,-28.633 64.104,-64.104l0,-205.125Zm-281.625,15.808l73.933,0l0,25.642l-73.933,0l0,-25.642Zm102.137,227.779l-89.741,0c-21.371,0 -38.463,-17.091 -38.463,-38.462l0,-89.742l128.204,0l0,128.204Zm153.846,-38.462c0,21.371 -17.091,38.462 -38.462,38.462l-89.742,0l0,-128.204l128.204,0l0,89.742Zm0,-115.384l-128.204,0l0,-128.204l89.742,0c21.371,0 38.462,17.092 38.462,38.463l0,89.741Z" clip-rule="nonzero"/></clipPath><g clip-path="url(#_clip36)"><rect x="6975" y="2325" width="416.667" height="416.667" style="fill:#29605f;"/></g><clipPath id="_clip37"><path d="M7280.91,2425l-18.179,18.183l-18.637,-18.183l-19.092,19.546l18.183,18.183l-18.183,18.179l19.092,19.092l18.637,-18.183l18.179,18.183l19.092,-19.092l-18.183,-18.179l18.183,-18.183l-19.092,-19.546Z" clip-rule="nonzero"/></clipPath><g clip-path="url(#_clip37)"><rect x="7183.33" y="2383.33" width="158.333" height="158.333" style="fill:#29605f;"/></g><clipPath id="_clip38"><path d="M7744.46,2659.12l-0.091,0c-6.359,0 -11.534,-5.104 -11.534,-11.392l0,-214.392l-17.291,0c-3.971,0 -7.213,3.205 -7.213,7.121l0,235.75c0,3.925 3.242,7.129 7.213,7.129l176.121,0c-64.355,-23.012 -131.275,-24.233 -144.63,-24.233c-1.654,0 -2.55,0.017 -2.575,0.017Z" clip-rule="nonzero"/></clipPath><g clip-path="url(#_clip38)"><rect x="7666.67" y="2391.67" width="266.667" height="333.333" style="fill:#29605f;"/></g><clipPath id="_clip39"><path d="M8076.28,2392.37c3.875,0 7.05,3.179 7.05,7.071l0,233.687c0,3.892 -3.183,7.071 -7.05,7.071c0,0 -78.241,-1.696 -151.283,26.467l0,-249.188c50.108,-32.408 151.283,-25.108 151.283,-25.108Z" clip-rule="nonzero"/></clipPath><g clip-path="url(#_clip39)"><rect x="7883.33" y="2350" width="241.667" height="358.333" style="fill:#29605f;"/></g><clipPath id="_clip40"><path d="M8088.87,2659.12l0.096,0c6.362,0 11.533,-5.104 11.533,-11.392l0,-214.392l17.287,0c3.971,0 7.217,3.205 7.217,7.121l0,235.75c0,3.925 -3.242,7.129 -7.217,7.129l-176.116,0c64.358,-23.012 131.275,-24.233 144.633,-24.233c1.65,0 2.546,0.017 2.567,0.017Z" clip-rule="nonzero"/></clipPath><g clip-path="url(#_clip40)"><rect x="7900" y="2391.67" width="266.667" height="333.333" style="fill:#29605f;"/></g><clipPath id="_clip41"><path d="M7840.78,2395.64l0,131.12l-26.721,-26.795l-26.716,26.795l0,-135.058c-18.055,-0.208 -30.292,0.667 -30.292,0.667c-3.871,0 -7.05,3.175 -7.05,7.066l0,233.696c0,3.892 3.179,7.071 7.05,7.071c0,0 78.242,-1.696 151.283,26.467l0,-249.196c-18.216,-11.779 -43.162,-18.288 -67.554,-21.833Z" clip-rule="nonzero"/></clipPath><g clip-path="url(#_clip41)"><rect x="7708.33" y="2350" width="241.667" height="358.333" style="fill:#29605f;"/></g><clipPath id="_clip42"><path d="M7816.67,2475.88l16.662,15.78l0,-106.005c-12.1,-1.666 -23.962,-2.221 -33.333,-2.325l0,108.334l16.671,-15.784Z" clip-rule="nonzero"/></clipPath><g clip-path="url(#_clip42)"><rect x="7758.33" y="2341.67" width="116.667" height="191.667" style="fill:#29605f;"/></g><clipPath id="_clip43"><path d="M8551.67,2570c23.012,0 41.666,-17.162 41.666,-38.333c0,-21.171 -18.654,-38.334 -41.666,-38.334c-23.013,0 -41.667,17.163 -41.667,38.334c0,21.171 18.654,38.333 41.667,38.333Z" clip-rule="nonzero"/></clipPath><g clip-path="url(#_clip43)"><rect x="8468.33" y="2451.67" width="166.667" height="160" style="fill:#29605f;"/></g><clipPath id="_clip44"><path d="M8553.26,2716.67c-47.587,0 -73.262,-94.459 -73.262,-183.334c0,-88.875 25.675,-183.333 73.262,-183.333c11.15,0.492 21.584,5.504 28.805,13.837c3.116,3.171 3.02,8.217 -0.217,11.271c-0.233,0.221 -0.483,0.43 -0.746,0.621c-2.058,1.417 -3.325,3.692 -3.417,6.154c0,4.404 3.646,7.971 8.142,7.971c1.342,-0.071 2.646,-0.471 3.792,-1.162c1.987,-1.092 4.358,-1.3 6.512,-0.575c2.159,0.683 3.929,2.212 4.884,4.225c18.187,44.816 26.866,92.787 25.512,140.991c0,88.875 -25.675,183.334 -73.267,183.334Zm0,-350.725c-26.941,0 -56.983,68.741 -56.983,167.391c0,98.65 30.042,167.392 56.983,167.392c26.946,0 56.988,-68.742 56.988,-167.392c1.029,-43.504 -6.146,-86.82 -21.167,-127.775c-13.429,1.709 -25.729,-7.566 -27.475,-20.716c-0.129,-0.979 -0.196,-1.967 -0.204,-2.959c0.008,-4.158 1.167,-8.233 3.354,-11.796c-3.287,-2.537 -7.312,-3.987 -11.496,-4.145Z" clip-rule="nonzero"/></clipPath><g clip-path="url(#_clip44)"><rect x="8438.33" y="2308.33" width="230" height="450" style="fill:#29605f;"/></g><clipPath id="_clip45"><path d="M8648.62,2646.65c-0.309,0.021 -0.613,0.021 -0.921,0c-46.842,-7.612 -91.767,-24.142 -132.308,-48.679c-38.05,-20.984 -72.288,-48.163 -101.288,-80.408c-25.279,-29.901 -33.454,-56.259 -23.008,-74.221c10.45,-17.963 37.521,-24.1 76.217,-17.321c42.57,8.842 83.349,24.717 120.637,46.966c38.054,20.963 72.296,48.126 101.3,80.359c25.267,29.9 33.425,56.258 22.992,74.221c-6.796,10.429 -17.963,17.258 -30.392,18.587c-4.379,0.804 -8.583,-2.071 -9.392,-6.421c-0.046,-0.258 -0.083,-0.512 -0.104,-0.77c-0.317,-4.309 -4.083,-7.546 -8.421,-7.234c-3.95,0.283 -7.071,3.446 -7.283,7.375c-0.275,4.225 -3.804,7.508 -8.063,7.5l0.034,0.046Zm-209.717,-207.313c-17.171,0 -29.266,4.134 -33.858,12c-6.596,11.346 1.383,32.259 21.362,55.909c27.8,30.804 60.596,56.758 97.029,76.783c36.738,22.067 77.092,37.538 119.217,45.717c3.867,-8.575 12.425,-14.113 21.879,-14.146c9.034,-0.029 17.304,5.029 21.35,13.058c5.104,-1.416 9.513,-4.637 12.396,-9.054c6.596,-11.346 -1.387,-32.254 -21.379,-55.908c-27.796,-30.8 -60.596,-56.758 -97.029,-76.783c-35.667,-21.338 -74.675,-36.584 -115.413,-45.109c-8.429,-1.55 -16.983,-2.379 -25.554,-2.467Z" clip-rule="nonzero"/></clipPath><g clip-path="url(#_clip45)"><rect x="8345" y="2381.67" width="413.333" height="306.667" style="fill:#29605f;"/></g><clipPath id="_clip46"><path d="M8438.63,2646.66c-6.416,0.062 -12.825,-0.538 -19.116,-1.788c-4.355,-0.921 -7.134,-5.158 -6.209,-9.471c0.113,-0.512 0.275,-1.016 0.484,-1.5c1.766,-3.958 -0.046,-8.587 -4.042,-10.333c-2.796,-1.225 -6.054,-0.742 -8.371,1.233c-3.417,2.825 -8.5,2.371 -11.35,-1.012c-0.617,-0.734 -1.096,-1.567 -1.417,-2.467c-13.008,-36.721 40.3,-99.158 126.592,-148.479c37.292,-22.188 78.079,-38.021 120.658,-46.842c38.692,-6.737 65.725,-0.637 76.171,17.258c23.55,40.409 -46.441,109.509 -124.271,154.021c-54.666,31.1 -110.441,49.38 -149.129,49.38Zm-8.058,-16.284c34.8,3.192 93.158,-15.008 149.108,-47.021c86.388,-49.396 131.721,-109.312 118.371,-132.208c-6.608,-11.321 -28.821,-14.863 -59.4,-9.579c-40.733,8.492 -79.742,23.683 -115.404,44.942c-73.462,42.004 -117.938,92.6 -120.371,120.508c13.383,-1.788 25.696,7.508 27.5,20.767c0.117,0.837 0.184,1.679 0.209,2.525l-0.013,0.066Z" clip-rule="nonzero"/></clipPath><g clip-path="url(#_clip46)"><rect x="8345" y="2381.67" width="413.333" height="306.667" style="fill:#29605f;"/></g><clipPath id="_clip47"><path d="M8583.33,2403.33c12.888,0 23.334,-10.446 23.334,-23.333c0,-12.887 -10.446,-23.333 -23.334,-23.333c-12.887,0 -23.333,10.446 -23.333,23.333c0,12.887 10.446,23.333 23.333,23.333Z" clip-rule="nonzero"/></clipPath><g clip-path="url(#_clip47)"><rect x="8518.33" y="2315" width="130" height="130" style="fill:#29605f;"/></g><clipPath id="_clip48"><path d="M8663.33,2660c12.888,0 23.334,-10.446 23.334,-23.333c0,-12.888 -10.446,-23.334 -23.334,-23.334c-12.887,0 -23.333,10.446 -23.333,23.334c0,12.887 10.446,23.333 23.333,23.333Z" clip-rule="nonzero"/></clipPath><g clip-path="url(#_clip48)"><rect x="8598.33" y="2571.67" width="130" height="130" style="fill:#29605f;"/></g><clipPath id="_clip49"><path d="M8406.67,2650c12.887,0 23.333,-10.446 23.333,-23.333c0,-12.888 -10.446,-23.334 -23.333,-23.334c-12.888,0 -23.334,10.446 -23.334,23.334c0,12.887 10.446,23.333 23.334,23.333Z" clip-rule="nonzero"/></clipPath><g clip-path="url(#_clip49)"><rect x="8341.67" y="2561.67" width="130" height="130" style="fill:#29605f;"/></g><defs><linearGradient id="_Linear6" x1="0" y1="0" x2="1" y2="0" gradientUnits="userSpaceOnUse" gradientTransform="matrix(5.22516e-13,8533.33,-8533.33,5.22516e-13,5125,241.667)"><stop offset="0" style="stop-color:#257b8b;stop-opacity:0"/><stop offset="1" style="stop-color:#196073;stop-opacity:0"/></linearGradient><linearGradient id="_Linear7" x1="0" y1="0" x2="1" y2="0" gradientUnits="userSpaceOnUse" gradientTransform="matrix(8.41945e-14,1375,-1375,8.41945e-14,7308.33,241.667)"><stop offset="0" style="stop-color:#257b8b;stop-opacity:1"/><stop offset="1" style="stop-color:#196073;stop-opacity:1"/></linearGradient></defs></svg>