<svg xmlns="http://www.w3.org/2000/svg" xmlns:xlink="http://www.w3.org/1999/xlink" version="1.1" x="0px" y="0px" viewBox="0 0 100 100" style="enable-background:new 0 0 100 100;" xml:space="preserve"><g><polygon points="28.7,74.7 34.7,74.7 34.7,69 40.4,69 40.4,63 34.7,63 34.7,57.4 28.7,57.4 28.7,63 23.1,63 23.1,69 28.7,69  "></polygon><rect x="58.7" y="69" width="17.3" height="6"></rect><rect x="58.7" y="60" width="17.3" height="6"></rect><path d="M89,26c0-8.3-6.7-15-15-15H26c-8.3,0-15,6.7-15,15v48c0,8.3,6.7,15,15,15h48c8.3,0,15-6.7,15-15V26z M23.1,29.7h17.3v6   H23.1V29.7z M47,83H26c-5,0-9-4-9-9V53h30V83z M83,74c0,5-4,9-9,9H53V53h30V74z M83,47H53V17h21c5,0,9,4,9,9V47z"></path><polygon points="71.4,24.4 67.4,28.4 63.3,24.4 59.1,28.7 63.1,32.7 59.1,36.7 63.3,40.9 67.4,36.9 71.4,40.9 75.6,36.7 71.6,32.7    75.6,28.7  "></polygon></g></svg>