<?xml version="1.0" encoding="utf-8"?>
<!-- Generator: Adobe Illustrator 22.1.0, SVG Export Plug-In . SVG Version: 6.00 Build 0)  -->
<svg version="1.1" xmlns="http://www.w3.org/2000/svg" xmlns:xlink="http://www.w3.org/1999/xlink" x="0px" y="0px"
	 viewBox="0 0 100 100" style="enable-background:new 0 0 100 100;" xml:space="preserve">
<g id="Layer_2">
</g>
<g id="Layer_1">
	<path d="M21.5,49.4l-6.4,6.4c-0.4,0.4-0.9,0.6-1.3,0.6s-1-0.2-1.3-0.6l-6.4-6.4c-0.7-0.7-0.7-1.9,0-2.7C6.8,46,8,46,8.8,46.7
		l3.1,3.1c0-21.1,17.2-38.2,38.3-38.2c1,0,1.9,0.8,1.9,1.9c0,0.2,0,0.4-0.1,0.5c-0.2,0.8-0.9,1.4-1.8,1.4l0,0
		c-19,0-34.5,15.5-34.5,34.5l0,0l3.2-3.2c0.7-0.7,1.9-0.7,2.7,0C22.3,47.5,22.3,48.7,21.5,49.4z M57.3,16.2c0.1,0,0.3,0,0.4,0
		c0.9,0,1.7-0.6,1.8-1.5c0.2-1-0.4-2-1.5-2.2c-1-0.2-2,0.4-2.2,1.5C55.6,15,56.2,16,57.3,16.2z M70.3,21.9c0.3,0.2,0.7,0.4,1.1,0.4
		c0.6,0,1.2-0.3,1.5-0.8c0.6-0.9,0.4-2-0.4-2.6l0,0c-0.9-0.6-2-0.4-2.6,0.4C69.2,20.2,69.4,21.3,70.3,21.9z M77,27.3
		c0.5,0,0.9-0.2,1.3-0.5c0.8-0.7,0.8-1.9,0.1-2.7c-0.7-0.8-1.9-0.8-2.7-0.1s-0.8,1.9-0.1,2.7C76,27.1,76.5,27.3,77,27.3z M82.9,38.9
		L82.9,38.9c0.3,0.8,1,1.3,1.8,1.3c0.2,0,0.4,0,0.6-0.1c1-0.3,1.5-1.4,1.2-2.4s-1.4-1.5-2.4-1.2C83.1,36.9,82.5,38,82.9,38.9z
		 M17.7,61.9c-0.4-1-1.4-1.5-2.4-1.1s-1.5,1.4-1.1,2.4c0.3,0.8,1,1.2,1.8,1.2c0.2,0,0.4,0,0.7-0.1C17.6,63.9,18.1,62.8,17.7,61.9z
		 M81.5,33.4c0.3,0,0.7-0.1,1-0.3c0.9-0.5,1.2-1.7,0.7-2.6c-0.5-0.9-1.7-1.2-2.6-0.7s-1.2,1.7-0.7,2.6C80.2,33,80.9,33.4,81.5,33.4z
		 M64.1,18.4c0.2,0.1,0.5,0.2,0.8,0.2c0.7,0,1.4-0.4,1.7-1.1c0.4-1,0-2.1-1-2.5s-2.1,0-2.5,1C62.7,16.8,63.1,18,64.1,18.4z
		 M37.1,81.9c-1-0.4-2.1,0.1-2.5,1c-0.4,1,0.1,2.1,1,2.5c0.2,0.1,0.5,0.1,0.7,0.1c0.7,0,1.5-0.4,1.7-1.2
		C38.5,83.4,38.1,82.3,37.1,81.9z M44,83.9c-1-0.2-2,0.5-2.2,1.5s0.5,2,1.5,2.2c0.1,0,0.2,0,0.3,0c0.9,0,1.7-0.6,1.9-1.6
		C45.7,85.1,45,84.1,44,83.9z M22.6,73.9c-0.8,0.7-0.8,1.9-0.1,2.7c0.4,0.4,0.9,0.6,1.4,0.6s0.9-0.2,1.3-0.5c0.8-0.7,0.8-1.9,0-2.7
		C24.6,73.2,23.4,73.1,22.6,73.9z M18.3,67.7c-0.9,0.6-1.2,1.7-0.6,2.6c0.4,0.6,1,0.9,1.6,0.9c0.3,0,0.7-0.1,1-0.3
		c0.9-0.6,1.1-1.7,0.6-2.6C20.3,67.4,19.2,67.1,18.3,67.7z M30.8,78.5c-0.9-0.6-2-0.4-2.6,0.5s-0.4,2,0.5,2.6
		c0.3,0.2,0.7,0.3,1.1,0.3c0.6,0,1.2-0.3,1.6-0.8C31.9,80.3,31.6,79.1,30.8,78.5z M94,50.6l-6.4-6.4c-0.7-0.7-1.9-0.7-2.7,0
		l-6.4,6.4c-0.7,0.7-0.7,1.9,0,2.7c0.4,0.4,0.9,0.6,1.3,0.6s1-0.2,1.3-0.6l3.2-3.2l0,0c0,19-15.5,34.5-34.5,34.5
		c-1,0-1.9,0.8-1.9,1.9s0.8,1.9,1.9,1.9c21.1,0,38.3-17.1,38.3-38.2l3.1,3.1c0.4,0.4,0.9,0.6,1.3,0.6s1-0.2,1.3-0.6
		C94.7,52.5,94.7,51.3,94,50.6z M56.3,48.8c-1.8-1-3.6-1.6-5.5-2.5c-1-0.4-2.1-0.9-3-1.6c-1.8-1.5-1.5-3.7,0.6-4.6
		c0.6-0.3,1.2-0.3,1.8-0.4c2.4-0.1,4.8,0.3,6.9,1.3c1,0.6,1.5,0.3,1.8-0.7c0.4-1.2,0.7-2.4,1-3.6c0.3-0.7,0-1.3-0.9-1.6
		c-1.3-0.6-2.8-1-4.3-1.3c-1.9-0.3-1.9-0.3-1.9-2.2c0-2.8,0-2.8-2.8-2.8c-0.4,0-0.7,0-1.2,0c-1.3,0-1.5,0.3-1.6,1.6
		c0,0.6,0,1.2,0,1.8c0,1.8,0,1.8-1.6,2.4c-4,1.5-6.6,4.3-6.9,8.6c-0.3,3.9,1.8,6.6,5.1,8.5c1.9,1.2,4.2,1.9,6.3,2.8
		c0.9,0.3,1.6,0.7,2.2,1.3c2.1,1.6,1.6,4.5-0.7,5.5c-1.3,0.6-2.7,0.7-4,0.6c-2.1-0.3-4.2-0.9-6.1-1.8c-1.2-0.6-1.5-0.4-1.8,0.7
		c-0.3,1-0.6,2.1-0.9,3.3c-0.4,1.5-0.3,1.8,1.2,2.4c1.8,0.9,3.6,1.3,5.5,1.6c1.5,0.3,1.5,0.3,1.5,1.8c0,0.7,0,1.3,0,2.1
		c0,0.9,0.4,1.3,1.3,1.5c1,0,2.1,0,3.1,0c0.9,0,1.3-0.4,1.3-1.3s0-1.9,0-2.8c0-1,0.4-1.5,1.3-1.8c2.2-0.6,4-1.8,5.5-3.4
		C63.4,58.9,61.8,51.9,56.3,48.8z"/>
</g>
</svg>
