<svg xmlns="http://www.w3.org/2000/svg" xmlns:xlink="http://www.w3.org/1999/xlink" version="1.1" x="0px" y="0px" viewBox="0 0 100 100" enable-background="new 0 0 100 100" xml:space="preserve"><path d="M49.997,57.752c5.001,0,9.056-4.053,9.056-9.053s-4.055-9.054-9.056-9.054c-4.999,0-9.053,4.053-9.053,9.054  S44.998,57.752,49.997,57.752z M95.604,48.699c0-2.654-0.992-5.18-2.809-7.505c0.42-0.831,0.662-1.767,0.662-2.762  c0-3.39-2.748-6.137-6.139-6.137c-1.607,0-3.066,0.624-4.161,1.636c-1.357-0.667-2.805-1.293-4.341-1.872  c1.79-10.855-0.127-19.454-6.017-22.854c-1.717-0.991-3.681-1.494-5.839-1.494c-5.135,0-11.076,2.803-17.025,7.712  c-5.949-4.884-11.879-7.713-16.899-7.713c-2.158,0-4.122,0.502-5.839,1.494c-2.301,1.328-3.992,3.453-5.098,6.191  c-3.194,0.213-5.723,2.866-5.723,6.116c0,2.732,1.786,5.044,4.252,5.84c0.102,1.514,0.283,3.085,0.551,4.71  C10.884,35.938,4.396,41.898,4.396,48.699c0,6.801,6.488,12.76,16.785,16.637c-0.17,1.021-0.314,2.033-0.42,3.021  C19.715,78.148,22,85.193,27.196,88.193c1.716,0.99,3.681,1.492,5.839,1.492c0.676,0,1.368-0.053,2.074-0.152  c1.099,1.66,2.98,2.756,5.119,2.756c3.391,0,6.139-2.746,6.139-6.137c0-0.477-0.061-0.938-0.162-1.383  c1.258-0.85,2.525-1.807,3.794-2.85c5.97,4.916,11.923,7.766,16.962,7.766h0.002c2.156,0,4.121-0.502,5.838-1.494  c5.196-3,7.481-10.045,6.434-19.836c-0.105-0.988-0.25-1.996-0.42-3.018C89.113,61.461,95.604,55.5,95.604,48.699z M66.961,11.712  c1.446,0,2.738,0.322,3.839,0.958c4.281,2.472,5.568,9.32,4.184,18.099c-3.971-1.196-8.38-2.111-13.114-2.686  c-2.837-3.75-5.826-7.1-8.854-9.946C58.044,14.074,62.938,11.712,66.961,11.712z M31.533,59.357c1.082,1.873,2.213,3.684,3.379,5.43  c-3.253-0.545-6.316-1.258-9.127-2.113c0.664-2.902,1.578-5.91,2.723-8.969C29.438,55.582,30.443,57.469,31.533,59.357z   M25.789,34.722c2.807-0.854,5.864-1.566,9.111-2.111c-1.157,1.743-2.283,3.553-3.367,5.43c-1.077,1.866-2.082,3.746-3.016,5.629  C27.365,40.585,26.453,37.58,25.789,34.722z M30.572,48.687c1.293-2.882,2.77-5.779,4.425-8.646c1.659-2.873,3.44-5.604,5.298-8.161  c3.127-0.325,6.377-0.502,9.707-0.502c3.327,0,6.575,0.177,9.701,0.501c1.855,2.556,3.637,5.286,5.294,8.157  c1.656,2.869,3.134,5.767,4.427,8.651c-1.283,2.875-2.758,5.786-4.426,8.674c-1.658,2.871-3.439,5.6-5.295,8.156  c-3.125,0.324-6.373,0.502-9.701,0.502c-3.33,0-6.581-0.178-9.709-0.502c-1.855-2.559-3.638-5.289-5.296-8.16  C33.33,54.469,31.855,51.563,30.572,48.687z M68.461,59.361c1.092-1.891,2.097-3.777,3.028-5.656  c1.146,3.061,2.059,6.068,2.723,8.969c-2.811,0.855-5.874,1.568-9.127,2.115C66.25,63.043,67.381,61.234,68.461,59.361z   M71.479,43.67c-0.934-1.885-1.939-3.767-3.018-5.634c-1.081-1.873-2.211-3.682-3.377-5.428c3.252,0.545,6.314,1.258,9.123,2.113  C73.543,37.579,72.631,40.584,71.479,43.67z M49.999,20.762c2.147,2.005,4.292,4.295,6.378,6.819  c-2.08-0.13-4.206-0.203-6.375-0.203c-2.172,0-4.299,0.073-6.382,0.204C45.707,25.057,47.852,22.767,49.999,20.762z M28.651,21.511  c0-2.116-1.071-3.982-2.701-5.085c0.771-1.661,1.845-2.949,3.247-3.758c1.1-0.635,2.393-0.958,3.839-0.958  c4.007,0,8.879,2.343,13.886,6.376c-3.013,2.847-5.991,6.212-8.832,10c-4.721,0.576-9.117,1.489-13.077,2.682  c-0.189-1.204-0.325-2.368-0.414-3.493C26.961,26.423,28.651,24.168,28.651,21.511z M8.396,48.699  c0-4.944,5.287-9.482,13.582-12.673c0.948,4.031,2.357,8.301,4.223,12.683c-1.83,4.309-3.258,8.577-4.222,12.663  C13.684,58.182,8.396,53.643,8.396,48.699z M44.112,81.402c-1.058-0.867-2.41-1.387-3.884-1.387c-3.211,0-5.842,2.467-6.109,5.609  c-0.367,0.037-0.729,0.061-1.084,0.061c-1.446,0-2.738-0.322-3.839-0.957c-3.688-2.129-5.313-7.941-4.458-15.945  c0.076-0.707,0.176-1.428,0.287-2.152c3.967,1.193,8.372,2.107,13.102,2.684c2.838,3.75,5.828,7.1,8.855,9.945  C46.019,80.039,45.061,80.752,44.112,81.402z M49.999,76.635c-2.147-2.004-4.293-4.295-6.38-6.82  c2.083,0.131,4.211,0.205,6.383,0.205c2.17,0,4.295-0.074,6.377-0.205C54.292,72.34,52.146,74.631,49.999,76.635z M70.801,84.729  c-1.102,0.635-2.393,0.957-3.838,0.957h-0.002c-4.023,0-8.918-2.363-13.945-6.426c3.027-2.846,6.017-6.195,8.854-9.945  c4.73-0.574,9.135-1.488,13.103-2.684c0.11,0.725,0.211,1.445,0.286,2.15C76.113,76.785,74.489,82.598,70.801,84.729z   M78.018,61.373c-0.965-4.088-2.392-8.355-4.223-12.664c1.865-4.383,3.275-8.653,4.223-12.685c1.146,0.441,2.23,0.909,3.255,1.398  c-0.055,0.329-0.09,0.665-0.09,1.009c0,3.39,2.748,6.137,6.136,6.137c0.941,0,1.83-0.218,2.629-0.597  c1.068,1.51,1.656,3.095,1.656,4.727C91.604,53.643,86.314,58.182,78.018,61.373z"></path></svg>