<?xml version="1.0" encoding="utf-8"?>
<!-- Generator: Adobe Illustrator 22.1.0, SVG Export Plug-In . SVG Version: 6.00 Build 0)  -->
<svg version="1.1" id="Layer_1" xmlns="http://www.w3.org/2000/svg" xmlns:xlink="http://www.w3.org/1999/xlink" x="0px" y="0px"
	 viewBox="0 0 100 100" style="enable-background:new 0 0 100 100;" xml:space="preserve">
<title>Artboard 17</title>
<g>
	<path d="M43.2,42.2c0,0.1,0,0.1,0,0.2c0.2,1.6,1.6,2.9,3.2,2.9l22.4,1.4c0.2,0,0.4,0.2,0.4,0.4L72.9,81h17.8l1.3-11.7
		c2.4-0.9,4.2-3.1,4.5-5.7L98.7,46c0.5-4.4-2.6-8.4-7.1-8.9c-0.3,0-0.6-0.1-0.9-0.1h-3c-0.1,0-0.2,0.1-0.3,0.2l-4.9,6.2
		c-0.4,0.4-1,0.5-1.4,0.1c0,0-0.1-0.1-0.1-0.1L76,37.1C76,37,75.9,37,75.8,37l-4.2,0.1l-25.3,1.6C44.4,38.8,43.1,40.4,43.2,42.2z"/>
	<ellipse transform="matrix(0.7071 -0.7071 0.7071 0.7071 6.2488 65.0859)" cx="81.7" cy="25" rx="9.5" ry="9.5"/>
	<path d="M38.3,81H50h17.2l-0.9-8.6H9.8V27h56.9c-0.1-0.7-0.1-1.3-0.2-2c0-2.3,0.5-4.5,1.5-6.5H7.5c-3.5,0-6.3,2.8-6.3,6.3v49.9
		c0,0,0,0,0,0C1.2,78.2,4,81,7.5,81h9.3H38.3z"/>
</g>
</svg>
